<?xml version="1.0" encoding="UTF-8" standalone="no"?>
<svg
   xmlns:dc="http://purl.org/dc/elements/1.1/"
   xmlns:cc="http://creativecommons.org/ns#"
   xmlns:rdf="http://www.w3.org/1999/02/22-rdf-syntax-ns#"
   xmlns:svg="http://www.w3.org/2000/svg"
   xmlns="http://www.w3.org/2000/svg"
   xmlns:sodipodi="http://sodipodi.sourceforge.net/DTD/sodipodi-0.dtd"
   xmlns:inkscape="http://www.inkscape.org/namespaces/inkscape"
   height="512px"
   id="Layer_1"
   style="enable-background:new 0 0 512 512;"
   version="1.1"
   viewBox="0 0 512 512"
   width="512px"
   xml:space="preserve"
   sodipodi:docname="menu — копия.svg"
   inkscape:version="0.92.2 (5c3e80d, 2017-08-06)"><metadata
     id="metadata158"><rdf:RDF><cc:Work
         rdf:about=""><dc:format>image/svg+xml</dc:format><dc:type
           rdf:resource="http://purl.org/dc/dcmitype/StillImage" /></cc:Work></rdf:RDF></metadata><defs
     id="defs156" /><sodipodi:namedview
     pagecolor="#ffffff"
     bordercolor="#666666"
     borderopacity="1"
     objecttolerance="10"
     gridtolerance="10"
     guidetolerance="10"
     inkscape:pageopacity="0"
     inkscape:pageshadow="2"
     inkscape:window-width="1304"
     inkscape:window-height="745"
     id="namedview154"
     showgrid="false"
     inkscape:zoom="1.125"
     inkscape:cx="111.55556"
     inkscape:cy="256"
     inkscape:window-x="-8"
     inkscape:window-y="-8"
     inkscape:window-maximized="1"
     inkscape:current-layer="Layer_1" /><g
     id="g151"
     style="fill:#646464;fill-opacity:1"><path
       d="M417.4,224H94.6C77.7,224,64,238.3,64,256c0,17.7,13.7,32,30.6,32h322.8c16.9,0,30.6-14.3,30.6-32   C448,238.3,434.3,224,417.4,224z"
       id="path145"
       style="fill:#646464;fill-opacity:1" /><path
       d="M417.4,96H94.6C77.7,96,64,110.3,64,128c0,17.7,13.7,32,30.6,32h322.8c16.9,0,30.6-14.3,30.6-32   C448,110.3,434.3,96,417.4,96z"
       id="path147"
       style="fill:#646464;fill-opacity:1" /><path
       d="M417.4,352H94.6C77.7,352,64,366.3,64,384c0,17.7,13.7,32,30.6,32h322.8c16.9,0,30.6-14.3,30.6-32   C448,366.3,434.3,352,417.4,352z"
       id="path149"
       style="fill:#646464;fill-opacity:1" /></g></svg>